<?xml version="1.0" encoding="UTF-8"?>
<svg width="80px" height="80px" viewBox="0 0 80 80" version="1.1" xmlns="http://www.w3.org/2000/svg" xmlns:xlink="http://www.w3.org/1999/xlink">
    <!-- Generator: Sketch 48.1 (47250) - http://www.bohemiancoding.com/sketch -->
    <title>Page 1 Copy 21</title>
    <desc>Created with Sketch.</desc>
    <defs></defs>
    <g id="Article-Copy-15" stroke="none" stroke-width="1" fill="none" fill-rule="evenodd" transform="translate(-148.000000, -206.000000)">
        <g id="Group" transform="translate(15.000000, 153.000000)">
            <g id="Page-1-Copy-21" transform="translate(134.000000, 55.000000)">
                <path d="M38.9605668,0.027347309 C57.7990563,0.0341527147 77.6649761,16.3058778 75.8890867,41.2794483 C74.5894895,59.5428888 58.3547305,77.4978175 35.1479613,75.9008157 C14.9304925,74.5102444 -0.603436518,57.0521103 0.0180113674,36.8060283 C0.662139832,15.8272309 18.4505185,-0.766616691 38.9605668,0.027347309" id="Fill-1" fill-opacity="0.499971694" fill="#000000"></path>
                <path d="M39.9597428,0.0273533072 C58.7987175,0.034159321 78.6653964,16.3050697 76.8890335,41.278603 C75.5890898,59.5436754 59.3522712,77.4979399 36.1461209,75.9007953 C15.9300679,74.5100998 0.394266023,57.0526744 1.01814825,36.807052 C1.66244845,15.82638 19.4510324,-0.766681638 39.9597428,0.0273533072 Z" id="Stroke-3" stroke="#FEFEFE" stroke-width="0.5" stroke-linejoin="round"></path>
                <path d="M29.7695411,16.5157625 C29.7695411,16.5157625 27,14.6584312 27,17.9929578 L27,58.0039423 C27,58.0039423 27,61.3384689 29.7062182,59.3877709 L57.8182265,39.1005111 C57.8182265,39.1005111 60.521112,37.1498131 57.7515709,35.2924818 L29.7695411,16.5157625 Z" id="Fill-5" fill="#FEFEFE"></path>
                <path d="M39.979278,-0.972634697 C61.278356,-0.953823046 79.5767949,17.5862206 77.8865105,41.3495945 C76.4351348,61.742386 58.3486026,78.4312288 36.0774914,76.8984375 C15.3783994,75.474513 -0.62347955,57.6131324 0.018619449,36.7763572 C0.677453825,15.3224014 18.8489755,-1.77998177 39.979278,-0.972634697 Z" id="Stroke-7" stroke="#FEFEFE" stroke-width="2" stroke-linejoin="round"></path>
            </g>
        </g>
    </g>
</svg>