<?xml version="1.0" encoding="utf-8"?>
<!-- Generator: Adobe Illustrator 15.0.2, SVG Export Plug-In . SVG Version: 6.00 Build 0)  -->
<!DOCTYPE svg PUBLIC "-//W3C//DTD SVG 1.1//EN" "http://www.w3.org/Graphics/SVG/1.1/DTD/svg11.dtd">
<svg version="1.1" id="圖層_1" xmlns="http://www.w3.org/2000/svg" xmlns:xlink="http://www.w3.org/1999/xlink" x="0px" y="0px"
	 width="7.921px" height="16.75px" viewBox="448.53 367.737 7.921 16.75" enable-background="new 448.53 367.737 7.921 16.75"
	 xml:space="preserve">
<path fill-rule="evenodd" clip-rule="evenodd" fill="#FBFBFD" d="M453.465,380.592c0,1.079-0.017,2.153,0.013,3.235
	c0.011,0.475-0.101,0.691-0.601,0.657c-0.577-0.04-1.154-0.04-1.73,0c-0.489,0.033-0.619-0.164-0.612-0.651
	c0.025-2.154-0.008-4.312,0.025-6.468c0.009-0.559-0.136-0.735-0.692-0.723c-1.338,0.026-1.338-0.005-1.338-1.399v-0.082
	c0-1.371,0-1.405,1.291-1.367c0.592,0.016,0.768-0.156,0.741-0.764c-0.037-0.773-0.069-1.56,0.068-2.337
	c0.296-1.649,1.237-2.635,2.848-2.889c0.854-0.137,1.72-0.025,2.581-0.01c0.303,0.006,0.425,0.149,0.385,0.456
	c-0.008,0.078,0,0.161-0.003,0.242c-0.045,0.616,0.104,1.363-0.182,1.813c-0.299,0.471-1.062,0.127-1.618,0.176
	c-0.532,0.045-0.883,0.308-1.051,0.811c-0.249,0.734-0.102,1.497-0.106,2.247c-0.004,0.33,0.299,0.232,0.48,0.235
	c0.652,0.01,1.308,0.026,1.956-0.003c0.423-0.02,0.583,0.14,0.516,0.56c-0.002,0.027,0,0.054-0.002,0.082
	c-0.066,0.716,0.114,1.656-0.26,2.092c-0.397,0.463-1.333,0.153-2.028,0.136c-0.55-0.021-0.715,0.146-0.693,0.719
	C453.497,378.436,453.465,379.515,453.465,380.592"/>
</svg>
