<?xml version="1.0" encoding="utf-8"?>
<!-- Generator: Adobe Illustrator 15.0.2, SVG Export Plug-In . SVG Version: 6.00 Build 0)  -->
<!DOCTYPE svg PUBLIC "-//W3C//DTD SVG 1.1//EN" "http://www.w3.org/Graphics/SVG/1.1/DTD/svg11.dtd">
<svg version="1.1" id="圖層_1" xmlns="http://www.w3.org/2000/svg" xmlns:xlink="http://www.w3.org/1999/xlink" x="0px" y="0px"
	 width="14.919px" height="18.116px" viewBox="336.501 242.592 14.919 18.116"
	 enable-background="new 336.501 242.592 14.919 18.116" xml:space="preserve">
<g>
	<path fill="#FFFFFF" d="M345.905,255.159c-0.001-0.091-0.027-0.189-0.062-0.277c-0.045-0.115-0.146-0.172-0.271-0.184
		c-0.145-0.014-0.262,0.044-0.366,0.138c-0.043,0.037-0.063,0.092-0.063,0.092l0.002,2.966v0.073c0,0,0.025,0.035,0.031,0.039
		c0.085,0.093,0.185,0.167,0.312,0.192c0.213,0.044,0.361-0.044,0.402-0.239c0.01-0.048,0.016-0.1,0.016-0.15
		C345.908,256.927,345.91,256.043,345.905,255.159 M345.905,255.159c-0.001-0.091-0.027-0.189-0.062-0.277
		c-0.045-0.115-0.146-0.172-0.271-0.184c-0.145-0.014-0.262,0.044-0.366,0.138c-0.043,0.037-0.063,0.092-0.063,0.092l0.002,2.966
		v0.073c0,0,0.025,0.035,0.031,0.039c0.085,0.093,0.185,0.167,0.312,0.192c0.213,0.044,0.361-0.044,0.402-0.239
		c0.01-0.048,0.016-0.1,0.016-0.15C345.908,256.927,345.91,256.043,345.905,255.159 M349.228,250.687
		c-3.511-0.075-7.023-0.075-10.534,0c-1.217,0.026-2.192,1.023-2.192,2.24v5.482c0,1.219,0.976,2.215,2.192,2.242
		c3.511,0.074,7.023,0.074,10.534,0c1.219-0.027,2.192-1.023,2.192-2.242v-5.482C351.42,251.71,350.447,250.713,349.228,250.687
		 M339.725,258.91h-1.013v-5.724h-1.047v-0.957h3.11v0.956h-1.051V258.91z M343.347,256.536v2.374h-0.895v-0.544
		c-0.033,0.037-0.052,0.055-0.068,0.074c-0.191,0.217-0.412,0.398-0.691,0.496c-0.135,0.045-0.275,0.061-0.42,0.037
		c-0.195-0.032-0.328-0.146-0.405-0.324c-0.073-0.165-0.094-0.34-0.095-0.515c-0.002-0.655-0.001-4.117-0.001-4.15h0.895
		c0.002,0.029,0.005,2.515,0.006,3.728c0,0.066,0.002,0.132,0.014,0.197c0.033,0.162,0.158,0.233,0.315,0.176
		c0.18-0.068,0.317-0.191,0.434-0.341c0.016-0.02,0.016-0.059,0.016-0.091v-3.675l0.896-0.003V256.536z M346.758,258.434
		c-0.12,0.363-0.385,0.546-0.763,0.541c-0.308-0.002-0.558-0.125-0.764-0.348c-0.023-0.025-0.088-0.093-0.088-0.093v0.376h-0.896
		v-6.681h0.896v2.198c0,0,0.053-0.102,0.097-0.154c0.141-0.154,0.309-0.275,0.519-0.327c0.345-0.086,0.742,0.019,0.93,0.422
		c0.113,0.238,0.143,0.493,0.143,0.753c0.002,0.933,0.002,1.865,0,2.8C346.831,258.095,346.814,258.268,346.758,258.434
		 M350.075,258.247c-0.156,0.456-0.478,0.71-0.948,0.778c-0.293,0.044-0.582,0.037-0.857-0.086
		c-0.374-0.171-0.587-0.476-0.679-0.866c-0.042-0.182-0.063-0.372-0.065-0.557c-0.007-0.733-0.004-1.465-0.002-2.197
		c0-0.381,0.092-0.733,0.354-1.028c0.3-0.335,0.683-0.458,1.119-0.431c0.13,0.008,0.266,0.03,0.39,0.071
		c0.424,0.139,0.65,0.457,0.741,0.88c0.033,0.162,0.046,0.331,0.049,0.498c0.007,0.389-0.003,1.25-0.003,1.25h-1.719v1.232
		c0,0.222,0.178,0.402,0.399,0.402c0.221,0,0.401-0.18,0.401-0.402v-0.633h0.924C350.18,257.158,350.194,257.906,350.075,258.247
		 M349.256,255.103c0-0.221-0.181-0.401-0.401-0.401c-0.222,0-0.399,0.18-0.399,0.401v0.692h0.801V255.103z M345.843,254.882
		c-0.045-0.115-0.146-0.172-0.271-0.184c-0.145-0.014-0.262,0.044-0.366,0.138c-0.043,0.037-0.063,0.092-0.063,0.092l0.002,2.966
		v0.073c0,0,0.025,0.035,0.031,0.039c0.085,0.093,0.185,0.167,0.312,0.192c0.213,0.044,0.361-0.044,0.402-0.239
		c0.01-0.048,0.016-0.1,0.016-0.15c0.002-0.883,0.004-1.766-0.002-2.65C345.904,255.068,345.877,254.969,345.843,254.882"/>
	<path fill="#FFFFFF" d="M348.139,244.346v4.96h-0.919l0.001-0.532c-0.102,0.1-0.188,0.192-0.283,0.276
		c-0.171,0.15-0.361,0.26-0.585,0.305c-0.344,0.066-0.637-0.041-0.747-0.397c-0.035-0.12-0.057-0.247-0.059-0.369v-4.242h0.912
		v3.782c0,0.05,0.003,0.102,0.013,0.151c0.029,0.156,0.144,0.229,0.292,0.177c0.186-0.063,0.324-0.19,0.442-0.339
		c0.016-0.021,0.014-0.062,0.014-0.092v-3.679H348.139z"/>
	<path fill="#FFFFFF" d="M340.536,245.209c-0.198-0.842-0.618-2.618-0.618-2.618h-1.045c0,0,0.803,2.667,1.164,3.853
		c0.012,0.043,0.019,0.092,0.019,0.137v2.724h0.963l-0.001-2.724c0-0.045,0.007-0.094,0.021-0.137
		c0.358-1.186,1.163-3.853,1.163-3.853h-1.047c0,0-0.418,1.776-0.615,2.618H340.536z"/>
	<path fill="#FFFFFF" d="M343.458,244.223c-0.725,0-1.315,0.588-1.315,1.316v2.574c0,0.729,0.591,1.316,1.315,1.316
		c0.729,0,1.317-0.588,1.317-1.316v-2.574C344.776,244.811,344.188,244.223,343.458,244.223 M343.84,248.167
		c0,0.208-0.171,0.379-0.382,0.379c-0.208,0-0.378-0.171-0.378-0.379v-2.681c0-0.209,0.17-0.38,0.378-0.38
		c0.211,0,0.382,0.171,0.382,0.38V248.167z"/>
</g>
</svg>
