<?xml version="1.0" encoding="utf-8"?>
<!-- Generator: Adobe Illustrator 15.0.2, SVG Export Plug-In . SVG Version: 6.00 Build 0)  -->
<!DOCTYPE svg PUBLIC "-//W3C//DTD SVG 1.1//EN" "http://www.w3.org/Graphics/SVG/1.1/DTD/svg11.dtd">
<svg version="1.1" id="圖層_1" xmlns="http://www.w3.org/2000/svg" xmlns:xlink="http://www.w3.org/1999/xlink" x="0px" y="0px"
	 width="19.002px" height="20.231px" viewBox="465.124 433.663 19.002 20.231"
	 enable-background="new 465.124 433.663 19.002 20.231" xml:space="preserve">
<g>
	<path fill-rule="evenodd" clip-rule="evenodd" fill="#F7F7F7" d="M470.086,450.789c0,0-1.556-0.729-1.974-1.569
		c-0.417-0.834-0.398-2.18-0.004-3.042c0.476-1.047,1.491-1.884,2.392-2.679c0.305-0.27,0.905-0.484,1.463-0.19
		c0.484,0.608,0.183,1.19-0.056,1.59c-0.412,0.689-1.204,1.155-1.612,1.847c-0.258,0.441-0.209,1.062,0.158,1.466
		c0.559,0.056,0.867,0.111,1.184-0.211c1.964-2,3.85-4.077,5.763-6.125c0.301-0.321,0.563-0.773,0.932-0.907
		c0.429-0.156,1.044-0.173,1.412,0.041c0.207,0.116,0.273,1.002,0.063,1.235c-2.425,2.695-4.811,5.432-7.407,7.963
		C471.596,450.993,470.086,450.789,470.086,450.789"/>
	<path fill-rule="evenodd" clip-rule="evenodd" fill="#F7F7F7" d="M475.648,449.23c-0.351-0.287-0.146-1.113,0.111-1.439
		c0.744-0.942,1.615-1.787,2.44-2.664c1.013-1.079,1.97-2.228,3.082-3.192c0.396-0.347,1.271-0.775,1.78-0.358
		c0.512,0.417,0.069,1.322-0.245,1.675c-1.742,1.97-3.843,4.167-5.756,6.077C476.402,449.987,476.069,449.574,475.648,449.23"/>
	<path fill-rule="evenodd" clip-rule="evenodd" fill="#F7F7F7" d="M477.457,451.513c-0.696-0.443-0.353-1.113-0.163-1.333
		c1.55-1.833,3.208-3.578,4.897-5.284c0.184-0.185,0.908-0.105,1.141,0.111c0.234,0.217,0.374,0.939,0.205,1.13
		c-1.59,1.801-3.253,3.536-4.904,5.28C478.532,451.523,478.273,452.033,477.457,451.513"/>
	<path fill-rule="evenodd" clip-rule="evenodd" fill="#F7F7F7" d="M484.113,449.574c-0.189,0.386-0.16,0.482-0.399,0.748
		c-0.952,1.062-1.896,2.144-2.958,3.089c-0.338,0.301-1.233,0.749-1.566,0.276c-0.422-0.601-0.137-1.237,0.137-1.586
		c0.914-1.159,1.952-2.23,3.022-3.251c0.29-0.277,0.889-0.436,1.315-0.321C484.246,448.684,484.113,449.208,484.113,449.574"/>
	<path fill-rule="evenodd" clip-rule="evenodd" fill="#F7F7F7" d="M475.475,440.99c0,0,1.147-0.538,1.456-1.157
		c0.306-0.615,0.292-1.608,0.004-2.243c-0.353-0.772-1.102-1.39-1.767-1.975c-0.224-0.199-0.666-0.357-1.078-0.14
		c-0.357,0.449-0.136,0.877,0.04,1.171c0.306,0.512,0.891,0.854,1.189,1.363c0.191,0.326,0.155,0.782-0.114,1.081
		c-0.414,0.042-0.641,0.083-0.875-0.156c-1.447-1.473-2.837-3.006-4.249-4.515c-0.219-0.236-0.412-0.571-0.687-0.669
		c-0.315-0.114-0.771-0.127-1.04,0.029c-0.152,0.087-0.203,0.739-0.048,0.912c1.786,1.987,3.546,4.005,5.46,5.87
		C474.362,441.139,475.475,440.99,475.475,440.99"/>
	<path fill-rule="evenodd" clip-rule="evenodd" fill="#F7F7F7" d="M471.373,439.841c0.26-0.211,0.11-0.822-0.08-1.061
		c-0.55-0.695-1.192-1.318-1.799-1.965c-0.749-0.796-1.453-1.641-2.272-2.354c-0.294-0.254-0.938-0.571-1.315-0.263
		c-0.375,0.307-0.049,0.975,0.183,1.235c1.284,1.451,2.831,3.071,4.242,4.48C470.819,440.398,471.062,440.094,471.373,439.841"/>
	<path fill-rule="evenodd" clip-rule="evenodd" fill="#F7F7F7" d="M470.04,441.524c0.514-0.327,0.26-0.821,0.12-0.983
		c-1.145-1.35-2.365-2.638-3.61-3.896c-0.135-0.137-0.671-0.079-0.842,0.079c-0.173,0.162-0.271,0.695-0.15,0.836
		c1.172,1.328,2.397,2.607,3.615,3.892C469.247,441.531,469.44,441.906,470.04,441.524"/>
	<path fill-rule="evenodd" clip-rule="evenodd" fill="#F7F7F7" d="M465.134,440.094c0.139,0.284,0.117,0.355,0.294,0.552
		c0.701,0.783,1.397,1.58,2.181,2.276c0.249,0.222,0.909,0.553,1.154,0.204c0.31-0.441,0.101-0.911-0.102-1.167
		c-0.674-0.855-1.438-1.646-2.228-2.398c-0.216-0.204-0.655-0.322-0.971-0.237C465.034,439.438,465.134,439.823,465.134,440.094"/>
</g>
</svg>
