<?xml version="1.0" encoding="UTF-8" standalone="no"?>
<!-- Created with Inkscape (http://www.inkscape.org/) -->

<svg
   xmlns:dc="http://purl.org/dc/elements/1.1/"
   xmlns:cc="http://creativecommons.org/ns#"
   xmlns:rdf="http://www.w3.org/1999/02/22-rdf-syntax-ns#"
   xmlns:svg="http://www.w3.org/2000/svg"
   xmlns="http://www.w3.org/2000/svg"
   xmlns:sodipodi="http://sodipodi.sourceforge.net/DTD/sodipodi-0.dtd"
   xmlns:inkscape="http://www.inkscape.org/namespaces/inkscape"
   width="1750"
   height="2300"
   id="svg3638"
   version="1.1"
   inkscape:version="0.47 r22583"
   sodipodi:docname="Lanyu_villages.svg">
  <defs
     id="defs3640">
    <inkscape:perspective
       sodipodi:type="inkscape:persp3d"
       inkscape:vp_x="0 : 526.18109 : 1"
       inkscape:vp_y="0 : 1000 : 0"
       inkscape:vp_z="744.09448 : 526.18109 : 1"
       inkscape:persp3d-origin="372.04724 : 350.78739 : 1"
       id="perspective3646" />
    <inkscape:perspective
       id="perspective3630"
       inkscape:persp3d-origin="0.5 : 0.33333333 : 1"
       inkscape:vp_z="1 : 0.5 : 1"
       inkscape:vp_y="0 : 1000 : 0"
       inkscape:vp_x="0 : 0.5 : 1"
       sodipodi:type="inkscape:persp3d" />
  </defs>
  <sodipodi:namedview
     id="base"
     pagecolor="#ffffff"
     bordercolor="#666666"
     borderopacity="1.0"
     inkscape:pageopacity="0.0"
     inkscape:pageshadow="2"
     inkscape:zoom="0.175"
     inkscape:cx="-863.47964"
     inkscape:cy="1585.356"
     inkscape:document-units="px"
     inkscape:current-layer="layer1"
     showgrid="false"
     inkscape:window-width="1360"
     inkscape:window-height="716"
     inkscape:window-x="-4"
     inkscape:window-y="-4"
     inkscape:window-maximized="1" />
  <metadata
     id="metadata3643">
    <rdf:RDF>
      <cc:Work
         rdf:about="">
        <dc:format>image/svg+xml</dc:format>
        <dc:type
           rdf:resource="http://purl.org/dc/dcmitype/StillImage" />
        <dc:title />
      </cc:Work>
    </rdf:RDF>
  </metadata>
  <g
     inkscape:label="Layer 1"
     inkscape:groupmode="layer"
     id="layer1"
     transform="translate(0,1247.6378)">
    <g
       id="g3594">
      <path
         d="m 1527.6591,873.78596 -6.5659,-0.5051 -2.5254,-4.5456 -1.0102,-5.0508 -2.0203,-2.5254 1.0102,-2.5254 5.0507,-3.0304 1.5153,-3.5356 4.0406,0 4.0406,3.5356 0,3.5355 2.0203,5.0508 -2.0203,4.5457 -3.5356,5.0507 z m 25.2539,10.6066 3.0304,-6.0609 7.0711,-5.0508 10.1015,-3.5355 10.1015,2.0203 18.1828,0 5.5558,-3.5355 37.8807,-12.6269 12.6269,-5.5559 18.1828,-6.0609 16.1624,0.5051 17.1726,8.0812 -6.0609,6.566 6.566,18.1828 11.6168,10.6066 0,4.5456 -6.061,3.5356 -3.0304,2.5254 0,6.566 8.5863,10.6066 -3.0305,16.1624 -5.5558,5.5558 1.5152,13.132 2.5254,3.5356 2.0203,6.5659 -6.566,3.0305 -4.0406,15.1523 -9.0914,0.5051 -14.1421,11.1116 -15.6574,7.0711 -21.7183,0.5051 -17.6776,6.56604 -8.0812,-0.5051 -13.6371,-4.54574 -10.6066,-17.6777 -0.5051,-7.5761 2.0203,-16.6675 -8.0812,-27.7792 -5.0508,-3.5355 -8.5863,-8.5863 -15.1522,-17.1726 -8.5863,-16.1625 z m -953.66058,-1125.36673 2.5,8.92857 3.21429,-1.42857 5,-0.71429 -0.35715,-5.71429 -8.21428,-2.14285 -2.14286,1.07143 z m 577.37878,-893.42313 -8.0812,1.5152 -7.5762,3.5356 0,10.6066 7.0711,9.5964 12.1218,4.5457 21.2132,4.5457 0,4.5457 15.1523,1.0101 10.1016,0 2.5253,-7.5761 8.0813,3.5355 5.5558,-3.5355 -5.0508,-3.0305 -7.5761,-11.6167 2.5254,-3.0305 4.0406,-5.5558 -6.0609,-4.0406 -10.1016,3.0304 -7.5761,5.0508 -8.0812,1.5152 -11.1117,-5.0508 -5.5558,-3.0304 5.0507,-4.5457 -9.0913,-4.5457 -7.5762,2.5254 z m 127.2641,1252.35173 -20,-5.7143 -35,-25.000003 -19.2857,-13.5714 -8.5714,-4.2858 -8.5715,-5.7142 -28.5714,2.8571 -10.7143,0 -9.2857,0 -7.1429,12.8571 -14.2857,0 -6.4285,-4.2857 -32.8572,0 -8.5714,6.4286 -6.4286,-7.8571 -7.1428,0 -4.2858,7.8571 -5.7142,5 -5,-5 -2.8572,-24.2857 -5.7143,-7.8572 3.5715,-15 -6.4286,-7.1428 2.1428,-11.4286 -6.4285,-25.7142995 -14.2857,-12.8571005 -6.4286,-8.5714 -20,-14.2858 -7.1429,-17.8571 -7.14285,-6.4286 2.85714,-10.7143 -6.42857,-6.4285 -1.42857,-5.7143 -4.28571,0 -17.14286,-17.857197 -10.71429,-6.4285 -4.28571,-21.4286 -17.85714,-18.5714 -20.71429,-14.2857 -9.28571,-14.2858 -5.71429,-7.1428 -15.71429,-5.7143 -1.42857,-25.7143 -10,-5 -10,2.8571 -1.42857,8.5715 -6.42857,3.5714 -6.42857,-5.7143 -17.14286,-12.85712 -9.28571,-5.71428 -1.42857,-15 -11.42858,-3.57143 -11.42857,0.71428 -7.14285,-0.71428 -12.14286,-12.85715 -32.85714,-10.71428 -17.85715,7.14286 -15,-2.85715 -15.71428,-5.71428 -6.42857,2.14285 -3.57143,8.57143 -16.42857,9.28572 -14.28572,-7.14286 -5,10 -17.85714,1.42857 -19.28572,8.57143 -29.28571,-1.42857 -2.14286,-3.57143 -8.57143,-5.71429 -7.14285,-2.14285 -11.42857,-7.14286 -21.42858,-11.42857 -9.28571,-14.28572 -7.85714,-4.28571 -20.71429,-30.71429 -39.28571,-37.14285 -15,-18.57143 -10.71429,-4.28572 -7.14286,-21.42857 6.42858,-10.71428 -5.71429,0 -12.14286,2.14285 -3.57143,-17.85714 3.57143,-4.28571 -1.42857,-10.71429 -11.42857,-11.42857 -12.85714,-7.85714 -10,2.14285 -5.71429,-2.85714 -2.14286,-4.28571 3.57143,-2.85715 -3.57143,-5.71428 -14.28571,1.42857 -14.28571,0 -7.85715,2.14286 -2.85714,-6.42857 5,-4.28572 -4.28571,-10 -11.42858,-2.14286 -1.42857,-14.28571 -4.28571,1.42857 -19.28572,-16.42857 -9.28571,-17.14286 -10,-11.42857 -7.14286,-11.42857 5.71429,-5.71429 1.42857,-6.42857 -5.71429,-6.42857 -7.85714,-6.42857 -8.57143,-3.57143 -10,-2.14286 -4.28571,4.28572 -17.14286,-1.42857 -9.28571,-2.85715 -9.28572,-2.85714 -13.57143,6.42857 -6.42857,7.14286 -3.57143,9.28571 -9.28571,0 -7.14286,-7.85714 -0.71428,-17.85714 0,-12.14286 29.28571,-27.14286 2.14286,-22.85714 -17.85714,-32.14286 -9.28572,-18.57142 0,-5 -10.71428,-6.42858 -7.85715,1.42858 -0.71428,-10 10.71428,-6.42858 5.71429,-4.28571 -6.42857,0.71429 0,-6.42858 -10.71429,-4.28571 -5.71428,-1.42857 -5,-4.28572 -0.71429,-15.71428 6.42857,-20.71429 7.14286,2.85715 -2.85714,31.42857 15,2.85714 5,-15.71429 -10.71429,-7.14285 3.57143,-10 8.57143,-18.57143 4.28571,-2.14286 -5,-7.14286 4.28572,-5 0,-7.85714 -7.14286,-2.85714 1.42857,-13.57143 8.57143,-5 1.42857,-5.71429 7.14286,-4.28571 0,-4.28571 10,-2.85715 1.42857,-14.28571 -2.14286,-7.85714 -6.42857,-11.42858 -7.85714,-31.42857 -5,-5.71428 2.14285,-16.42857 -14.28571,-24.28572 -7.14286,-15.71431 -10,-5 -10.71428,-5 -23.57143,-29.2857 -13.571427,-5 -12.85714,-19.2857 0.71428,-10 -2.85714,-5 -14.28571,-3.5714 -21.42858,-18.5715 -8.57142,-7.1428 -7.14286,-14.2857 0,-15 6.42857,-6.4286 0,-15.7143 15,-17.8571 11.42857,-2.1429 24.28572,-16.4286 23.571417,-5.7143 10,5 -2.14285,3.5715 10,12.8571 10,1.4286 37.85714,27.1428 17.14286,7.8572 17.85714,15 27.14286,-2.8572 18.57143,2.1429 19.99999,-5 20.71429,0.7143 12.14286,2.1428 5.71428,7.8572 6.42858,-10.7143 35,-7.8571 10,0 30,-5 11.42857,-5.7143 11.42857,-1.4286 22.14286,7.8571 6.42857,0.7143 10.71428,7.8572 4.28572,20 8.57143,7.1428 1.42857,12.1429 7.14285,5 7.14286,-2.1429 0.71429,-12.8571 9.28571,-20.7143 12.85714,-2.1429 41.42858,-10 14.28571,-0.7142 -0.71429,7.1428 0,4.2857 5.71429,0.7143 18.57143,-5 30.71428,-4.2857 15,-12.1429 10.71429,-1.4285 17.14286,-8.5715 32.85714,-1.4285 22.85714,-0.7143 31.42857,-3.5714 37.14286,0.7142 13.57143,-0.7142 15,1.4285 7.85714,-1.4285 16.42857,0 21.42858,-5 11.42857,2.8571 11.42857,27.8571 16.42857,15.7143 13.57143,0.7143 25.71428,-15.7143 7.85715,-5 14.28571,-12.8571 10.71429,-5.7143 35.71429,-32.1429 0,-10 6.4286,-6.4285 0.7143,5.7143 15.7143,-12.8572 1.4285,2.8572 -2.8571,7.8571 -2.1429,1.4286 -0.7143,8.5714 6.4286,14.2857 10,7.1429 18.5714,24.2857 7.1429,16.4286 0.7143,26.4285 -20.7143,55 -17.8571,18.5715 0,27.1428 3.5714,6.4286 0,12.85714 2.8571,32.85714 11.4286,12.85715 2.8571,17.85714 -2.8571,4.28571 -5.7143,-0.71428 -5.7143,8.57143 7.8572,15 20,17.85714 26.4285,21.42857 9.2858,1.42857 5,8.57143 3.5714,5.71429 7.8571,0.71428 2.1429,6.42857 -4.2857,5 15.7143,14.28572 7.1428,-2.14286 8.5714,15.71429 -24.2857,-7.14286 -7.1428,-4.28572 -5.7143,4.28572 -8.5714,0.71428 -9.2858,5.71429 -12.1428,-2.14286 -7.1429,0.71429 -5.7143,0 -5.7142,2.14286 -8.5715,8.57142 4.2857,10.71429 6.4286,16.42857 -18.5714,-12.85714 -15,1.42857 -8.5715,7.85714 -2.1428,6.42857 -6.4286,2.85715 -1.4286,4.28571 2.1429,6.42857 4.2857,7.14286 -13.5714,11.42857 -8.57145,1.42857 -10.71428,-2.14285 -8.57143,7.85714 -4.28572,9.28571 -1.42857,8.57143 -2.85714,13.57143 5,19.28571 -0.71429,31.42858 7.14286,5 8.57143,5.71428 11.42857,36.42857 6.42862,9.28572 0.7142,11.42857 10.7143,12.85714 7.8572,20.71429 10,23.57143 -7.8572,0 -2.1428,5.71428 -7.1429,9.28572 2.1429,5.71428 8.5714,-6.42857 7.8572,2.14286 -2.8572,10.71428 4.2857,1.42857 7.8572,-3.57142 18.5714,7.85714 17.8571,21.42857 27.8572,30.71429 30.7143,25 50,29.28571 15.7143,8.57143 8.5714,2.14286 9.2857,9.28571 7.1429,-1.42857 18.5714,17.85714 37.1428,7.85714 15.7144,7.14286 11.4285,2.85714 22.8572,7.85715 5,5 15.7143,5.71428 11.4285,11.42857 22.8572,10 15,15.71429 16.4285,7.14286 15.7143,10.71428 17.8572,1.42857 8.5713,11.42858 16.4286,12.85714 0.7143,9.28576 5.7142,-5.00005 8.5715,7.14285 5,19.2857 8.5714,12.1429 -2.8571,26.4286 0.7142,12.1428 12.8572,0 -7.8572,7.8572 -7.8571,5.7142 -10.7143,12.8572 -1.4286,5.7143 -5.7142,12.8571 -0.7143,6.4286 -8.5715,4.285697 -6.4285,-2.142897 -12.1428,14.285797 -7.1428,12.8571 1.4285,12.8571 -16.4285,37.1429 -8.5715,9.2857 -5,27.1429 2.1429,10.7143 -14.2857,51.4285 -23.5715,18.5715 -45,17.142803 -39.2857,7.1429 z"
         style="fill:#808080;fill-opacity:1;stroke:#ffffff;stroke-width:3;stroke-linecap:butt;stroke-linejoin:miter;stroke-miterlimit:0;stroke-opacity:1;stroke-dasharray:none"
         id="path3613" />
      <path
         id="path3616"
         d="m 107.28814,-1209.7242 -17.678577,67.3214 108.928577,120.7143 26.42857,11.0715 14.28571,34.99997 41.07143,37.85714 -1.42857,27.14286 6.78571,9.64286 4.64286,14.64285 -1.78571,10 8.92857,10 17.85714,4.64286 10,-0.71429 18.57143,4.28572 16.42857,-0.35714 16.42857,-13.57143 20.71429,7.5 18.57143,-6.42857 23.92857,-5.71429 2.85714,-6.42857 23.92857,16.42857 10.71429,-3.57143 38.57143,-0.71428 26.42857,-1.78572 30,27.5 17.14285,6.78572 53.57143,-20 12.85715,0.35714 14.28571,-10.71429 7.85714,-10.35714 13.21429,-2.85714 16.78571,-14.64286 8.21429,-21.07143 0.35714,-20 96.78572,-23.57143 10,-34.64286 42.5,-30.35712 24.28571,2.1428 26.42857,-2.5 22.85715,-16.0714 58.92857,-70 16.78576,-25 0.7142,-15 -15.7142,-44.6429"
         style="fill:none;stroke:#ffffff;stroke-width:2;stroke-linecap:butt;stroke-linejoin:miter;stroke-miterlimit:0;stroke-opacity:1;stroke-dasharray:none" />
      <path
         id="path3618"
         d="m 589.87742,-838.47418 -1.66009,22.52746 -14.39468,48.23479 -9.34391,11.36421 -8.33376,8.5863 -8.83883,53.28555 6.31345,9.59645 13.13198,3.03045 24.24367,17.67767 11.36421,30.80965 -5.3033,14.64722 3.53553,19.44543 -7.82868,14.89975 -16.16244,13.8896 -26.26396,35.35534 -31.81981,15.40483 -12.12183,15.15228 -73.4886,25.75889 -20.96066,27.02158"
         style="fill:none;stroke:#ffffff;stroke-width:2;stroke-linecap:butt;stroke-linejoin:miter;stroke-miterlimit:0;stroke-opacity:1;stroke-dasharray:none" />
      <path
         id="path3620"
         d="m 591.66314,-663.20632 26.35369,-3.7429 14.39467,-0.25254 19.1929,-5.3033 9.84899,-1.01015 20.70812,9.84899 15.65737,1.01015 21.46574,29.7995 20.20305,11.36422 8.33376,1.76776 9.34391,6.31346 18.18274,2.52538 13.8896,0.25254 19.95052,15.9099 18.18274,10.10153 36.11295,10.6066 -5.3033,54.54823 33.58758,77.02414 63.89214,22.98097 22.4759,24.24366 24.24369,7.82868 18.6878,18.18275 14.8998,1.51522 -1.0102,51.51778 1.7678,8.33376 -11.8693,17.42513 -2.778,11.8693 5.0508,10.85914 37.1231,10.6066 20.9607,8.33376 8.0812,6.06091 -6.0609,14.14218 -1.0101,10.8591 -15.6574,21.7183 3.7881,9.5964 16.1624,11.1117 15.9099,0 21.2132,-4.2931 10.1015,4.2931 22.4759,23.9911 59.094,48.2348 21.4657,21.465797 6.8185,10.354 15.6574,13.132 22.7284,13.6371 8.0812,41.4162005 6.061,7.3236 4.7982,10.3540995 -2.0203,43.4365 17.9302,24.4962 6.566,30.557203"
         style="fill:none;stroke:#ffffff;stroke-width:2;stroke-linecap:butt;stroke-linejoin:miter;stroke-miterlimit:0;stroke-opacity:1;stroke-dasharray:none" />
    </g>
  </g>
</svg>
